<?xml version="1.0" standalone="no"?>
<!DOCTYPE svg PUBLIC "-//W3C//DTD SVG 20010904//EN"
 "http://www.w3.org/TR/2001/REC-SVG-20010904/DTD/svg10.dtd">
<svg version="1.0" xmlns="http://www.w3.org/2000/svg"
 width="202.000000pt" height="208.000000pt" viewBox="0 0 202.000000 208.000000"
 preserveAspectRatio="xMidYMid meet">

<g transform="translate(0.000000,208.000000) scale(0.100000,-0.100000)"
fill="#000000" stroke="none">
<path d="M0 1050 l0 -1030 1010 0 1010 0 0 1030 0 1030 -1010 0 -1010 0 0
-1030z m384 758 c8 -30 8 -1372 0 -1392 -10 -26 -60 -21 -68 7 -11 41 -7 1367
4 1388 15 27 56 25 64 -3z m621 -48 c40 -18 40 -18 10 -19 -16 -1 -45 -10 -63
-21 -18 -11 -45 -20 -60 -20 -74 -1 -154 -66 -202 -166 -48 -99 -63 -182 -64
-339 -1 -158 16 -250 65 -347 16 -32 43 -86 60 -120 17 -35 43 -75 57 -90 30
-33 25 -35 -27 -9 -79 41 -161 168 -196 306 -21 86 -32 239 -23 345 29 370
223 580 443 480z m46 -60 c75 -41 80 -270 9 -370 -22 -32 -48 -38 -68 -18 -20
20 -14 56 17 90 43 50 63 95 68 159 5 52 3 60 -20 83 -33 33 -39 33 -80 -4
-69 -60 -141 -236 -173 -420 -24 -142 -22 -367 4 -448 23 -72 46 -102 77 -102
51 0 104 114 125 270 16 124 18 128 52 135 16 4 31 5 34 2 8 -8 -17 -290 -36
-409 -27 -164 -73 -285 -103 -275 -21 7 -20 58 2 81 11 12 27 48 35 81 13 56
31 255 23 255 -3 0 -12 -21 -22 -47 -71 -188 -175 -181 -235 15 -68 220 -42
566 56 752 69 133 169 205 235 170z m585 -265 c104 -126 207 -251 228 -277
l38 -47 -232 -278 c-128 -153 -239 -285 -246 -293 -12 -12 -14 -2 -14 68 l0
82 183 195 c100 108 183 200 185 205 2 5 -80 99 -182 207 l-185 198 -1 105 c0
102 0 104 19 85 10 -11 103 -123 207 -250z m-477 166 c127 -253 117 -649 -20
-862 -48 -75 -57 -78 -51 -17 2 29 11 71 19 93 75 205 91 322 69 490 -8 61
-22 130 -30 154 -9 24 -16 67 -16 95 -1 28 -7 68 -14 89 -12 33 -12 36 1 25 8
-6 27 -37 42 -67z m11 -390 c0 -12 -26 -42 -62 -73 -34 -29 -88 -79 -120 -111
-69 -69 -92 -72 -96 -11 -3 36 1 45 27 67 16 14 61 37 99 51 42 16 82 40 102
61 39 40 50 43 50 16z m-176 -553 c-8 -47 -17 -58 -51 -58 -28 0 -28 -8 -3
-40 11 -14 20 -32 19 -40 0 -15 -32 -60 -43 -60 -6 0 -76 123 -76 133 0 4 17
7 38 7 40 0 75 27 101 78 17 33 22 27 15 -20z m217 -154 c17 -48 -64 -123
-142 -131 -62 -6 -73 4 -54 51 9 20 20 34 25 31 14 -9 91 28 114 54 23 26 46
24 57 -5z"/>
</g>
</svg>
